<?xml version="1.0" encoding="UTF-8" standalone="no"?>
<!DOCTYPE svg PUBLIC "-//W3C//DTD SVG 1.1//EN"
 "http://www.w3.org/Graphics/SVG/1.1/DTD/svg11.dtd">
<!-- Generated by graphviz version 2.38.0 (20140413.2041)
 -->
<!-- Title: %3 Pages: 1 -->
<svg width="247pt" height="321pt"
 viewBox="0.00 0.00 246.79 321.00" xmlns="http://www.w3.org/2000/svg" xmlns:xlink="http://www.w3.org/1999/xlink">
<g id="graph0" class="graph" transform="scale(1 1) rotate(0) translate(4 317)">
<title>%3</title>
<polygon fill="white" stroke="none" points="-4,4 -4,-317 242.792,-317 242.792,4 -4,4"/>
<!-- src -->
<g id="node1" class="node"><title>src</title>
<ellipse fill="none" stroke="black" cx="85.7924" cy="-295" rx="85.5853" ry="18"/>
<text text-anchor="middle" x="85.7924" y="-291.3" font-family="Times,serif" font-size="14.00">ClojureScript source</text>
</g>
<!-- js -->
<g id="node2" class="node"><title>js</title>
<ellipse fill="none" stroke="black" cx="85.7924" cy="-193" rx="68.7879" ry="18"/>
<text text-anchor="middle" x="85.7924" y="-189.3" font-family="Times,serif" font-size="14.00">Intermediary JS</text>
</g>
<!-- src&#45;&gt;js -->
<g id="edge1" class="edge"><title>src&#45;&gt;js</title>
<path fill="none" stroke="black" d="M85.7924,-276.581C85.7924,-261.382 85.7924,-239.067 85.7924,-221.464"/>
<polygon fill="black" stroke="black" points="89.2925,-221.219 85.7924,-211.219 82.2925,-221.219 89.2925,-221.219"/>
<text text-anchor="middle" x="155.792" y="-247.8" font-family="Times,serif" font-size="14.00"> &#160;&#160;ClojureScript compiler</text>
<text text-anchor="middle" x="155.792" y="-232.8" font-family="Times,serif" font-size="14.00">(on JVM)</text>
</g>
<!-- cjs -->
<g id="node3" class="node"><title>cjs</title>
<ellipse fill="none" stroke="black" cx="85.7924" cy="-91" rx="59.5901" ry="18"/>
<text text-anchor="middle" x="85.7924" y="-87.3" font-family="Times,serif" font-size="14.00">Optimized JS</text>
</g>
<!-- js&#45;&gt;cjs -->
<g id="edge2" class="edge"><title>js&#45;&gt;cjs</title>
<path fill="none" stroke="black" d="M85.7924,-174.581C85.7924,-159.382 85.7924,-137.067 85.7924,-119.464"/>
<polygon fill="black" stroke="black" points="89.2925,-119.219 85.7924,-109.219 82.2925,-119.219 89.2925,-119.219"/>
<text text-anchor="middle" x="162.292" y="-145.8" font-family="Times,serif" font-size="14.00"> &#160;&#160;Google Closure compiler</text>
<text text-anchor="middle" x="162.292" y="-130.8" font-family="Times,serif" font-size="14.00">with aggressive opts</text>
</g>
<!-- browser -->
<g id="node4" class="node"><title>browser</title>
<ellipse fill="none" stroke="black" cx="85.7924" cy="-18" rx="41.6928" ry="18"/>
<text text-anchor="middle" x="85.7924" y="-14.3" font-family="Times,serif" font-size="14.00">Browser</text>
</g>
<!-- cjs&#45;&gt;browser -->
<g id="edge3" class="edge"><title>cjs&#45;&gt;browser</title>
<path fill="none" stroke="black" d="M85.7924,-72.8129C85.7924,-64.7895 85.7924,-55.0475 85.7924,-46.0691"/>
<polygon fill="black" stroke="black" points="89.2925,-46.0288 85.7924,-36.0288 82.2925,-46.0289 89.2925,-46.0288"/>
</g>
</g>
</svg>
